 <svg xmlns="http://www.w3.org/2000/svg" height="400" viewBox="0 0 700 400" preserveAspectRatio="xMinYMin meet">
    <rect width="100%" height="100%" fill="#FB6632"/>
    <g>
    <!-- left handle -->
        <path d="M 200 200
            c 0 0, 0 0, 0 50
            c 0 0, 0 0, 10 4
            c 0 0 , 0 0, 0 -54
            c 0 0, -5 -3, -10 0
            " stroke="black" fill="#2F0003" />
    <!-- basis left handle -->
        <path d="M 200 250
            c 0 0, 0 0, 0 20
            c 0 0, 5 3, 10 0
            c 0 0, 0 0, 0 -16
            z
            " stroke="black" fill="#BCCBC6" />
    <!-- right handle -->
        <path d="M 500 200
            c 0 0, 0 0, 0 54
            c 0 0, 0 0, 10 -4
            c 0 0 , 0 3, 0 -50
            c 0 0, -5 -3, -10 0
            " stroke="black" fill="#2F0003" />
    <!-- basis right handle -->
        <path d="M 500 254
            c 0 0, 0 0, 0 14
            c 0 0, 5 3, 10 0
            c 0 0, 0 0, 0 -20
            z
            " stroke="black" fill="#BCCBC6" />
    </g>
</svg>