 <svg xmlns="http://www.w3.org/2000/svg" height="400" viewBox="0 0 600 380" preserveAspectRatio="xMinYMin meet">
        <rect width="100%" height="100%" fill="orange"/>
        <!-- glasses -->
        <!-- background -->
        <rect width="86px" height="9.5%" x="277px" y="100px" fill="#F7E7E3"/>
        <!-- frame -->
        <path d="M 270 100
                c 0 0, 50 2, 100 0
        " stroke="black" stroke-width="4" fill="none" />
        <path d="M 275 100
                c 0 0, 0 0, 0 27
        " stroke="black" stroke-width="4" fill="none" />
        <path d="M 275 127
                c 0 0, 0 10, 10 10
        " stroke="black" stroke-width="4" fill="none" />
        <path d="M 285 137
                c 0 0, 50 3, 71 0
        " stroke="black" stroke-width="4" fill="none" />
        <path d="M 365 100
                c 0 0, 0 0, 0 27
        " stroke="black" stroke-width="4" fill="none" />
        <path d="M 365 127
                c 0 0, 0 10, -10 10
        " stroke="black" stroke-width="4" fill="none" />
        <path d="M 318 100
                c 0 0, 0 0, 0 38
        " stroke="black" fill="none" />
</svg>