 <svg xmlns="http://www.w3.org/2000/svg" height="400" viewBox="0 0 600 380" preserveAspectRatio="xMinYMin meet">
        <rect width="100%" height="100%" fill="#B6A1B4"/>
        <!-- face -->
        <!-- face light part -->
        <path d="M 384 116
                c 0 0, 0 0, 0 17
                c 0 0, 0 0, -25 -16
                " fill="#F9CEBF"/>
        <!-- face grey part -->
        <path d="M 390 160
                c 0 0, 12 40, -23 45
                " stroke="black" stroke-width="1.5" fill="#A3A3A3"/>
        <path d="M 371 190
                c 0 0, 0 8, -6 20
                c 0 0, -2 3, -6 5
                c 0 0, -35 10, -70 0
                " stroke="black" stroke-width="1.5" fill="#A3A3A3"/>
        <!-- hair -->
        <path d="M 385 116
                c 0 0, -4 10, 0 28
                c 0 0 , 0 5, -5 0
                c 0 0, -2 -5, -2 -12
                c 0 0, 0 0, 0 7
                c 0 0, -2 5, -4 0
                c 0 0 , -4 -6, 2 -26
                " stroke="black" stroke-width="1.5" fill="#A3A3A3"/>
        <!-- cap -->
        <!-- cap rope -->
        <circle r="12" cx="380" cy="44" stroke="black" stroke-width="2" fill="#1F1F1F" />
        <path d="M 387 55
                c 0 0, 5 5, 20 60
                c 0 0, 0 0, -20 0
                c 0 0, 0 0, -10 -56
                " stroke="black" stroke-width="2" fill="#1F1F1F"/>
        <path d="M 386.5 56
                        c 0 0, 0 0, 4 10
                        c 0 0, -4 4, -7 2
                        c 0 0, 0 0, -5 -10
                        " stroke="#C8B772" fill="#C8B772" />
        <!-- cap body -->
        <path d="M 366 115
                l 23 0
                l -10 -75
                c 0 0, -40 3, -83 0
                l  -10 65
        " stroke="black" stroke-width="3" fill="#73293B" />
        <path d="M 380 40
                c 0 0, -40 -12, -85 0
        " stroke="black" stroke-width="3" fill="#8E4056" />
        <!-- cap picture -->
        <circle r="15" cx="325" cy="63" fill="#C8B772" />
        <path d="M 309 54
                c 0 0, 0 0, 0 19
                c 0 0, 0 0, 25 -10
        " fill="#73293B" />
        <path d="M 348 50
                c 0 0, 0 0, 0 25
                c 0 0, 0 0, -14 -12
        " fill="#C8B772" />
        <ellipse rx="2" ry="4.5" cx="51.9%" cy="16.5%" fill="#C8B772"/>
        <!-- glasses -->
        <!-- background -->
        <rect width="86px" height="9.7%" x="277px" y="100px" fill="#F7E7E3"/>
        <!-- frame -->
        <path d="M 270 100
                c 0 0, 50 2, 100 0
        " stroke="black" stroke-width="4" fill="none" />
        <path d="M 275 100
                c 0 0, 0 0, 0 27
        " stroke="black" stroke-width="4" fill="none" />
        <path d="M 275 127
                c 0 0, 0 10, 10 10
        " stroke="black" stroke-width="4" fill="none" />
        <path d="M 285 137
                c 0 0, 42 5, 71 0
        " stroke="black" stroke-width="4" fill="none" />
        <path d="M 365 100
                c 0 0, 0 0, 0 27
        " stroke="black" stroke-width="4" fill="none" />
        <path d="M 365 127
                c 0 0, 0 10, -10 10
        " stroke="black" stroke-width="4" fill="none" />
        <path d="M 318 100
                c 0 0, 0 0, 0 38
        " stroke="black" fill="none" />
        <!-- left eye -->
        <circle r="12.3" cx="305" cy="120" stroke="black" fill="white" />
        <!-- nose -->
        <path d="M 319 125
                c 0 0 , 24 39, -5 48
                c 0 0, -14 3, -20 -10
                c 0 0 , -10 -16, 23 -39
        " stroke="black" stroke-width="1.5" fill="#E78D77" />
        <path d="M 298 155
                c 0 0, 2 7, 4 2
                c 0 0, 2 4, 4 0
        " stroke="#763230" stroke-opacity="0.5" fill="none" />
        <path d="M 302 164
                c 0 0, 2 7, 4 2
                c 0 0, 2 4, 4 0
        " stroke="#763230" stroke-opacity="0.5" fill="none" />
        <!-- right eye -->
        <circle r="12.3" cx="329" cy="120" stroke="black" fill="white" />
        <!-- left black circle eye -->
        <circle r="2" cx="327" cy="124" stroke="black" fill="black" />
        <!-- right black circle eye -->
        <circle r="2" cx="304" cy="124" stroke="black" fill="black" />
        <!-- left line eye -->
        <path d="M 290 119
                c 0 0, -3 10, 7 14
        " stroke="black" stroke-opacity="0.5" fill="none" />
        <!-- right line eye -->
        <path d="M 346 119
                c 0 0, 3 8, -8 14
        " stroke="black" stroke-opacity="0.5" fill="none" />
</svg>