 <svg xmlns="http://www.w3.org/2000/svg" height="400" viewBox="0 0 600 380" preserveAspectRatio="xMinYMin meet">
        <rect width="100%" height="100%" fill="#B6A1B4"/>
        <!-- body -->
        <!-- left shoulder -->
        <path d ="M 210 156
                c 0 0, 30 5, 65 5
                c 0 0, 0 0, 0 185
                " stroke="black" stroke-width="1.5" fill="#2C2A26" />
        <path d ="M 210 156
                c 0 0, -12 -5, -8 40
                c 0 0, 0 5, -15 25
                c 0 0, 0 0, 80 90
                c  0 0, 0 0, 10 -50
                " stroke="black" stroke-width="1.5" fill="#2C2A26" />
        <!-- body -->
        <path d="M 230 215
                c  0 0, -25 50, 30 167
                c 0 0, 0 0, 140 0
                c 0 0, 0 0, 40 -80
                c 0 0, 0 0, 0 -135
                " stroke="black" stroke-width="2" fill="#2C2A26" />
        <path d="M 306 330
                c  0 0, -12 20, -8 52
                " stroke="black" stroke-width="1.5" fill="#2C2A26" />
        <ellipse rx="5.5" ry="2.5%" cx="52.5%" cy="90%" stroke="black" stroke-width="1.8" fill="#202020"/>
        <path d="M 310 382
                c  0 0, 0 0, 10 0
                c 6 -10, -13 -22, -11 0
                " stroke="black" stroke-width="1.5" fill="#202020" />
        <path d="M 319 335
                c  0 0, 10 0, 25 -10
                " stroke="black" stroke-width="1.5" fill="#2C2A26" />
        <path d="M 320 380
                c  0 0, 10 0, 20 -8
                " stroke="black" stroke-width="1.5" fill="#2C2A26" />
        <path d="M 320 345
                c  0 0, 10 0, 20 10
                " stroke="black" stroke-width="1.5" fill="#2C2A26" />
        <path d="M 299 346
                c  0 0, -10 0, -22 -10
                " stroke="black" stroke-width="1.5" fill="#2C2A26" />
        <path d="M 299 352
                c  0 0, -10 0, -25 14
                " stroke="black" stroke-width="1.5" fill="#2C2A26" />
        <!-- right shoulder -->
        <path d ="M 400 162
                c 0 0, 20 5, 90 0
                c 0 0, 10 2, -8 40
                c 0 0, 40 100, 20 180
                c 0 0, 0 0, -42 0
                c 0 0, 0 0, -25 -90
                " stroke="black" stroke-width="2" fill="#2C2A26" />
        <path d ="M 468 205
                c 0 0, -25 20, -35 80
                " stroke="black" stroke-width="1.8" fill="none" />
        <!-- hair -->
        <!-- jacket -->
        <!-- jacket collar left -->
        <path d="M 280 180
                c 0 0, 0 0, -25 40
                c 0 0, -5 5, 0 10
                c 0 0, 0 0, 30 20
                c 0 0, 0 0, -20 10
                c 0 0, -5 5, -2 10
                c 0 0, 0 10, 60 50
                c 0 0, 0 0, 40 -90 
                " stroke="black" stroke-width="2" fill="#202020" />
        <!-- jacket collar right -->
        <path d="M 400 177
                c 0 0, 5 0, 20 50
                c 0 0, 0 10, -40 20
                c 0 0, 0 0, 10 15
                c 0 0, 4 5, 6 8
                c 0 0, 10 10, -90 60
                c 0 0, 0 0, 18 -20
                c 0 0, 0 0, 0 -120
                " stroke="black" stroke-width="1.5" fill="#202020" />
        <!-- T-shirt -->
        <!-- T-shirt white part -->
        <path d="M 290 214
                c 0 0, -10 50, 30 100
                c 0 0, 40 -40, 60 -113
                " stroke="black" stroke-width="1.5" fill="#fff" />
        <!-- foo top right -->
        <path d="M 330 218
                c 0 0, 5 0, 40 20
                c 0 0, 5 1, -8 10
                c 0 0, 0 0, -50 -40
                " stroke="black" fill="#73293B" />
        <!-- foo top left -->
        <path d="M 320 216
                c 0 0, 0 0, -37 15
                c 0 0, -4 0, 3 14
                c 0 0, 0 0, 40 -27
                " stroke="black" fill="#73293B" />
        <!-- foo bottom -->
        <path d="M 330 218
                c 0 0, 0 40, 5 50
                c 0 0, 0 3, -5 5
                c 0 0, -5 0, -2 -50
                c 0 0, 0 0, -10 0
                c 0 0, 5 0, -5 35
                c 0 0, 0 3, 4 5
                c 0 0, 4 0, 5 -45
                " stroke="black" fill="#73293B" />
        <circle r="7.5" cx="325" cy="220" stroke="black" stroke-width="1.5" fill="#73293B" />
        <!-- ear right part -->
        <path d="M 385 119
                c 0 0, -10 0, 0 60
                c 0 0, 0 0, 20 -6.5
                " fill="#F9CEBF" />
        <!-- left ear -->
        <path d="M 275 108
                c 0 0, -2 -14, -12 0
                c 0 0, -9 15, 10 40
                c 0 0, -5 5, -7 17
                c 0 0, -1 15, 18 0
                " stroke="black" stroke-width="1.5" fill="#F9CEBF" />
        <path d="M 268 112
                c 0 0, 5 0, 6 10
                " stroke="black" fill="none" />
        <!-- face -->
        <path d="M 390 164
                c 0 0, 2 0, -5 -20
                c 0 0, 0 -20, -20 -20
                c 0 0, 0 0, -80 80
                c 0 0, 0 0, 90 0
                " fill="#BDC6C6"/>
        <!-- face light part -->
        <path d="M 384 116
                c 0 0, 0 0, 0 17
                c 0 0, 0 0, -25 -16
                " fill="#F9CEBF"/>
        <!-- face grey part -->
        <path d="M 390 160
                c 0 0, 12 40, -23 45
                " stroke="black" stroke-width="1.5" fill="#BDC6C6"/>
        <path d="M 285 205
                c 0 0, -6 0, -11 -10
                c 0 0, -8 -10, 7 -60
                c 0 0, 0 0, 80 0
                " stroke="black" stroke-width="1.5" fill="#BDC6C6"/>
        <path d="M 371 190
                c 0 0, 0 8, -6 20
                c 0 0, -2 3, -6 5
                c 0 0, -35 10, -65 0
                c 0 0, -4 0, -7 -5
                c 0 0, -2 0, -4 -15
                " stroke="black" stroke-width="1.5" fill="#BDC6C6"/>
        <!-- mouth -->
        <path d="M 360 138
                c 0 0, 6 -5, 8 5
                c 0 0, 5 25, -40 35
                c 0 0, -35 5, -42 -20
                c 0 0, -4 -12, 5 -8
                c 0 0, 30 30, 70 -15
                " stroke="black" fill="white" />
        <!-- teeth -->
        <path d="M 343 151
                c 0 0, 0 0, 4 20
                " stroke="black" fill="none" />
        <path d="M 326 158
                c 0 0, 0 0, 2 20
                " stroke="black" fill="none" />
        <path d="M 310 158
                c 0 0, 0 0, -1 20
                " stroke="black" fill="none" />
        <path d="M 295 150
                c 0 0, 0 0, -3 18
                " stroke="black" fill="none" />
        <path d="M 355 141
                c 0 0, 0 0, 6 22
                " stroke="black" fill="none" />
        <!-- smile line -->
        <path d="M 288 143
                c 0 0, -9 3, -8 15
                " stroke="black" fill="none" />
        <path d="M 365 133
                c 0 0, 10 3, 9 18
                " stroke="black" fill="none" />
        <path d="M 315 178
                c 0 0, -3 0, -5 10
                " stroke="black" fill="none" />
        <path d="M 309 178
                c 0 0, -3 0, -5 5
                " stroke="black" fill="none" />
        <path d="M 385 116
                c 0 0, -4 10, 0 28
                c 0 0 , 0 5, -5 0
                c 0 0, -2 -5, -2 -12
                c 0 0, 0 0, 0 7
                c 0 0, -2 5, -4 0
                c 0 0 , -4 -6, 2 -26
                " stroke="black" stroke-width="1.5" fill="#A3A3A3"/>
        <!-- cap -->
        <!-- cap rope -->
        <circle r="12" cx="380" cy="44" stroke="black" stroke-width="2" fill="#1F1F1F" />
        <path d="M 387 55
                c 0 0, 5 5, 20 60
                c 0 0, 0 0, -20 0
                c 0 0, 0 0, -10 -56
                " stroke="black" stroke-width="2" fill="#1F1F1F"/>
        <path d="M 386.5 56
                        c 0 0, 0 0, 4 10
                        c 0 0, -4 4, -7 2
                        c 0 0, 0 0, -5 -10
                        " stroke="#C8B772" fill="#C8B772" />
        <!-- cap body -->
        <path d="M 366 115
                l 23 0
                l -10 -75
                c 0 0, -40 3, -83 0
                l  -10 65
        " stroke="black" stroke-width="3" fill="#73293B" />
        <path d="M 380 40
                c 0 0, -40 -12, -85 0
        " stroke="black" stroke-width="3" fill="#8E4056" />
        <!-- cap picture -->
        <circle r="15" cx="325" cy="63" fill="#C8B772" />
        <path d="M 309 54
                c 0 0, 0 0, 0 19
                c 0 0, 0 0, 25 -10
        " fill="#73293B" />
        <path d="M 348 50
                c 0 0, 0 0, 0 25
                c 0 0, 0 0, -14 -12
        " fill="#C8B772" />
        <ellipse rx="2" ry="4.5" cx="51.9%" cy="16.5%" fill="#C8B772"/>
        <!-- glasses -->
        <!-- background -->
        <rect width="86px" height="9.7%" x="277px" y="100px" fill="#F7E7E3"/>
        <!-- frame -->
        <path d="M 270 100
                c 0 0, 50 2, 100 0
        " stroke="black" stroke-width="4" fill="none" />
        <path d="M 275 100
                c 0 0, 0 0, 0 27
        " stroke="black" stroke-width="4" fill="none" />
        <path d="M 275 127
                c 0 0, 0 10, 10 10
        " stroke="black" stroke-width="4" fill="none" />
        <path d="M 285 137
                c 0 0, 42 5, 71 0
        " stroke="black" stroke-width="4" fill="none" />
        <path d="M 365 100
                c 0 0, 0 0, 0 27
        " stroke="black" stroke-width="4" fill="none" />
        <path d="M 365 127
                c 0 0, 0 10, -10 10
        " stroke="black" stroke-width="4" fill="none" />
        <path d="M 318 100
                c 0 0, 0 0, 0 38
        " stroke="black" fill="none" />
        <!-- left eye -->
        <circle r="12.3" cx="305" cy="120" stroke="black" fill="white" />
        <!-- nose -->
        <path d="M 319 125
                c 0 0 , 24 39, -5 48
                c 0 0, -14 3, -20 -10
                c 0 0 , -10 -16, 23 -39
        " stroke="black" stroke-width="1.5" fill="#E78D77" />
        <path d="M 298 155
                c 0 0, 2 7, 4 2
                c 0 0, 2 4, 4 0
        " stroke="#763230" stroke-opacity="0.5" fill="none" />
        <path d="M 302 164
                c 0 0, 2 7, 4 2
                c 0 0, 2 4, 4 0
        " stroke="#763230" stroke-opacity="0.5" fill="none" />
        <!-- right eye -->
        <circle r="12.3" cx="329" cy="120" stroke="black" fill="white" />
        <!-- left black circle eye -->
        <circle r="2" cx="327" cy="124" stroke="black" fill="black" />
        <!-- right black circle eye -->
        <circle r="2" cx="304" cy="124" stroke="black" fill="black" />
        <!-- left line eye -->
        <path d="M 290 119
                c 0 0, -3 10, 7 14
        " stroke="black" stroke-opacity="0.5" fill="none" />
        <!-- right line eye -->
        <path d="M 346 119
                c 0 0, 3 8, -8 14
        " stroke="black" stroke-opacity="0.5" fill="none" />
        <!-- ear right -->
        <path d="M 385 117
                c 0 -10, 25 -20, 32 0
                c 0 0, 10 15, -15 40
                c 0 0, 10 22, -10 20
                c 0 0, 0 1, 5 -0
                " stroke="black" stroke-width="2" fill="#F9CEBF" />
        <path d="M 390 143
                c 0 -3, 15 0, 3 12
                " stroke="black" stroke-width="1.2" fill="none" />
        <path d="M 390 142
                c 0 0, 0 -4, 6 -17
                c 0 0, 10 -18, 14 0
                " stroke="black" stroke-width="1.2" fill="none" />
</svg>