 <svg xmlns="http://www.w3.org/2000/svg" height="400" viewBox="0 0 600 380" preserveAspectRatio="xMinYMin meet">
	<!-- background -->
  <rect width="100%" height="100%" fill="#030a24"/>
	<!-- body -->
	<path d="M 130 380
					c 0 -155, 350 -105, 340 0
					" stroke="black" stroke-width="1.5" fill="#2A3136" />
					
					<!-- c 0 0, -110 -100, -290 0 -->

	<!-- shadow -->
	<path d="M 130 380
					c 0 -155, 350 -105, 340 0
					c 0 0, 0 0, -15 0
					c 0 0, 0 -20, -20 -40
					c 0 0, 0 0, -260 0
					c 0 0, -20 0, -25 40
					" stroke="none" fill="#000" fill-opacity="0.4" />
	<!-- sweater -->
	<path d="M 130 360
					c -20 -100, 360 -110, 340 0
					c 0 0, -30 -40, -110 10
					q -50 30, -100 0
					q -65 -40, -130 -10
					z
					" stroke="black" stroke-width="1.5" fill="#452620" />
	<path d="M 310 385
						c 0 0, 0 -10, 40 -30
					" stroke="black" stroke-width="1.5" fill="none"/>
	<path d="M 300 385
						c 0 0, 0 -20, -52 -50
					" stroke="black" stroke-width="1.5" fill="none"/>
	<path d="M 306 374
						c 0 0, 0 -35, 30 -35
						c 0 0, 0 0, -70 0
						c 0 0, 29 0, 42 20
					" stroke="black" stroke-width="1.5" fill="#638F6D"/>
	<!-- light -->
	<defs>
    <linearGradient id="grad1" x1="0%" y1="0%" x2="100%" y2="0%">
      <stop offset="0%" style="stop-color: #fff; stop-opacity:0.1" />
      <stop offset="70%" style="stop-color: #000; stop-opacity:0.4" />
    </linearGradient>
  </defs>
	<path d="M 130 360
					c -20 -100, 360 -110, 340 0
					c 10 -10, -320 -110, -340 0
					" stroke="none" fill="url(#grad1)"/>
	<!-- hat bacground -->
	<ellipse rx="220" ry="30%" cx="55%" cy="10%" stroke="black" stroke-width="2" fill="#11345C"/>
	<ellipse rx="210" ry="30%" cx="45.5%" cy="10%" stroke="black" stroke-width="2"  fill="#2D4D65"/>
	<ellipse rx="210" ry="30%" cx="46%" cy="10%"  fill="#2D4D65"/>
	<!-- skin of the face -->
	<g>
		<ellipse rx="24.2%" ry="25%" cx="50.8%" cy="65%" fill="#638F6D" stroke="black" stroke-width="2" />
		<path d="M 450 240
						c 0 0, 0 0, 0 -180
						c 0 0, -150 40, -290 0
						c 0 0 , 0 0, 0 180
						" stroke="black" stroke-width="2" fill="#638F6D" />
	</g>

	<!-- hat -->
	<path d="M 450 60
						c 0 0, 0 0, 0 -45
						c 0 0, -145 -100, -290 0
						c 0 0, 0 0, 0 45
						c 0 0, 125 42, 290 0
						" stroke="black" stroke-width="2" fill="#2D4D65" />
	<path d="M 160 55
						c 0 0, 125 42, 290 0
						c 0 0, 0 0, 0 6
						c 0 0, -146 42, -290 0
						z
						" stroke="black" stroke-width="2" fill="#6393BF" />
	<!-- |_|,|| -->
	<path d="M 190 0
					c 0 0, 0 0, 0 30
					c 0 0, 0 5, -10 15
					c 0 0, 0 0, -20 0
					c 0 0, -8 2, -20 -20
					c 0 0, 0 0, 0 -25
					" stroke="black" stroke-width="1.5" fill="#895645" />
	<path d="M 175 10
					c 0 0, 0 10, -10 18
					c 0 0, -8 0, -13 -20
					c 0 0, 10 -5, 23 3
					" stroke="black" stroke-width="1.5" fill="#C1C102"  />
	<path d="M 205 10
					c 0 0, 0 0, 0 30
					c 0 0, 4 5, 10 0
					c 0 0, 0 0, 0 -20
					c 0 0, 0 -15, -10 -10
					" stroke="black" stroke-width="1.5" fill="#C1C102"  />			
		<!-- shadow -->
	<path d="M 450 15
					c 0 0, 0 0, 0 186
					c 0 0, -10 -2, -20 5
					c 0 0, 10 -100, -10 -211
					" stroke="none" fill="#11345C" fill-opacity="0.5" />
	<path d="M 450 247
					c 0 0, 1 80, -128 95
					c 0 0, 0 0, 0 -1
					c 0 0, 70 0, 108 -96
					z
					" stroke="noe" fill="#11345C" fill-opacity="0.5" />
	<!-- light -->
	<path d="M 161.3 90
					c 0 0, 0 0, 0 110
					c 0 0, 4 -1, 8 2
					c 0 0, 0 0, 0 -105
					z
					" stroke="none" fill="white" fill-opacity="0.25" />
	<!-- left eyes -->
	<!-- top -->
	<g>
		<path d="M 184 140
						c 0 0, 0 0, 71 0
						c 0 0, 0 0, -1 7
						c 0 0, 0 0, -70 0
						
							" stroke="black" fill="#AFD0FE" />
		<path d="M 255 133
						c 0 0, 5 15, -12 28
							" stroke="black" stroke-width="1.5" fill="none" />
		<path d="M 184 133
						c 0 0, -5 15, 12 28
							" stroke="black" stroke-width="1.5" fill="none" />
		<!-- pupil -->
		  <circle r="3.5" cx="41.9%" cy="37.7%" fill="black"/>
		<!-- eyebrow top -->
		<path d="M 190 115
						q 8 -12, 35 0
						q 10 5, 25 5
						" stroke="black"  stroke-width="1.5" fill="none" />
		<!-- bottom -->
	</g>
	<!-- bottom -->
	<g>
		<path d="M 184 210
							c 0 0, 0 0, 71 0
							c 0 0, 0 0, -1 7
							c 0 0, 0 0, -70 0
							x
								" stroke="black" fill="#AFD0FE" />
			<path d="M 255 205
							c 0 0, 5 15, -12 28
								" stroke="black" stroke-width="1.5" fill="none" />
			<path d="M 184 205
							c 0 0, -5 15, 12 28
								" stroke="black" stroke-width="1.5" fill="none" />
			<!-- pupil -->
				<circle r="3.5" cx="41.9%" cy="56.1%" fill="black"/>
			<!-- eyebrow top -->
			<path d="M 190 195
							q 8 -12, 35 0
							q 10 5, 25 5
							" stroke="black"  stroke-width="1.5" fill="none" />
	<!-- bottom -->
		</g>
	<!-- medium eyes -->
	<!-- top -->
	<g>
		<path d="M 265 142
						c 0 0, 0 0, 71 0
						c 0 0, 0 0, -1 7
						c 0 0, 0 0, -70 0
							" stroke="black" fill="#AFD0FE" />
		<path d="M 335 137
						c 0 0, 5 15, -12 28
							" stroke="black" stroke-width="1.5" fill="none" />
		<path d="M 265 137
						c 0 0, -5 15, 12 28
							" stroke="black" stroke-width="1.5" fill="none" />
		<!-- pupil -->
		  <circle r="3.5" cx="55.3%" cy="38.2%" fill="black"/>
		<!-- eyebrow top -->
		<path d="M 270 122
						c 0 0, 30 15, 60 0"
						stroke="black"  stroke-width="1.5" fill="none" />
	</g>
	<!-- bottom -->
	<g>
		<path d="M 265 214
							c 0 0, 0 0, 71 0
							c 0 0, 0 0, -1 7
							c 0 0, 0 0, -70 0
								" stroke="black" fill="#AFD0FE" />
			<path d="M 336 209
							c 0 0, 5 15, -12 28
								" stroke="black" stroke-width="1.5" fill="none" />
			<path d="M 265 209
							c 0 0, -5 15, 12 28
								" stroke="black" stroke-width="1.5" fill="none" />
			<!-- pupil -->
				<circle r="3.5" cx="55.5%" cy="57.1%" fill="black"/>
			<!-- eyebrow bottom -->
			<path d="M 270 200
							c 0 0, 30 15, 60 0"
							stroke="black"  stroke-width="1.5" fill="none" />
		</g>
	<!-- right eyes -->
	<!-- top -->
	<g>
		<path d="M 350 140
						c 0 0, 0 0, 71 0
						c 0 0, 0 0, -1 7
						c 0 0, 0 0, -70 0
							" stroke="black" fill="#AFD0FE" />
		<path d="M 420 133
						c 0 0, 5 15, -12 28
							" stroke="black" stroke-width="1.5" fill="none" />
		<path d="M 350 133
						c 0 0, -5 15, 12 28
							" stroke="black" stroke-width="1.5" fill="none" />
		<!-- pupil -->
		  <circle r="3.5" cx="69.5%" cy="37.6%" fill="black"/>
		<!-- eyebrow top -->
		<path d="M 355 120
						q 8 2, 20 -4
						q 30 -13, 40 0
						" stroke="black"  stroke-width="1.5" fill="none" />
	</g>
	<!-- bottom -->
	<g>
		<path d="M 350 210
							c 0 0, 0 0, 71 0
							c 0 0, 0 0, -1 7
							c 0 0, 0 0, -70 0
								" stroke="black" fill="#AFD0FE" />
			<path d="M 420 205
							c 0 0, 5 15, -12 28
								" stroke="black" stroke-width="1.5" fill="none" />
			<path d="M 350 205
							c 0 0, -5 15, 12 28
								" stroke="black" stroke-width="1.5" fill="none" />
			<!-- pupil -->
			<circle r="3.5" cx="69.5%" cy="56.1%" fill="black"/>
			<!-- eyebrow bottom -->
			<path d="M 355 200
				q 8 2, 20 -4
				q 30 -13, 40 0
				" stroke="black" stroke-width="1.5" fill="none" />
		</g>
	<!-- ears-->
	<!-- ear left -->
	<g>
		<path d="M 162 200
						c 0 0, 0 -5, -80 -2
						c 0 0, 0 20, 80 50
						" stroke="black" stroke-width="2" fill="#638F6D" />
		<path d="M 152 222
						c 0 0, -15 -12, -35 -13
						" stroke="black" stroke-width="2" fill="none" />
		<!-- ear right -->
		<path d="M 448 200
						c 0 0, 0 -5, 80 -2
						c 0 0, 0 20, -80 50
						" stroke="black" stroke-width="2" fill="#638F6D" />
		<path d="M 452 222
						c 0 0, 15 -12, 35 -13
						" stroke="black" stroke-width="2" fill="none" />
			<!-- shadow -->
		<path d="M 431 245
						c 0 0, 30 0, 95 -45
						c 0 0, 0 20, -78 47
						" stroke="none" fill="#11345C" fill-opacity="0.5" />
		<!-- light -->
		<path d="M 161.3 248
						c 0 0, -1 42, 49 70
						c 0 0, -30 -10, -43 -70
						c 0 0, 0 0, -5 -1
						z
						" stroke="none" fill="white" fill-opacity="0.25" />
	</g>
	<!-- mouth -->
	<g>
		<path d="M 280 260
						c 0 0, 35 -27 , 70 0
						c 0 0, 10 12, -10 10
						c 0 0, -20 -8, -50 0
						c 0 0, -17 1, -10 -10
						" stroke="black" stroke-width="1.5" fill="#AFD0FE" />
		<path d="M 284 258
						l 62 0
						"  stroke="black" stroke-width="3" stroke-linecap="round"  />
	</g>
	<!-- tongue -->
	<g>
		<path d="M 297 257
						c 0 0, 15 10, 35 0
						q 0 -9, -17.5 0
						q -15 -8, -17.5 0
						" stroke="black" stroke-width="1.5" fill="#943CE2" />
	</g>
</svg>