 <svg xmlns="http://www.w3.org/2000/svg" height="400" viewBox="0 0 600 380" preserveAspectRatio="xMinYMin meet">
	<!-- background -->
  <rect width="100%" height="100%" fill="#030a24"/>
	<!-- skin of the face -->
	<g>
		<ellipse rx="24.2%" ry="25%" cx="50.8%" cy="65%" fill="#638F6D" stroke="black" stroke-width="2" />
		<path d="M 450 240
						c 0 0, 0 0, 0 -180
						c 0 0, -150 40, -290 0
						c 0 0 , 0 0, 0 180
						" stroke="black" stroke-width="2" fill="#638F6D" />
	</g>
	<!-- right eyes -->
	<!-- top -->
	<!-- example circle -->
		  <!-- <circle r="36" cx="36.5%" cy="36%" fill="yellowgreen"/> -->
	<g>
		<path d="M 184 140
						c 0 0, 0 0, 71 0
						c 0 0, 0 0, -1 7
						c 0 0, 0 0, -70 0
						x
							" stroke="black" fill="#AFD0FE" />
		<path d="M 255 133
						c 0 0, 5 15, -12 28
							" stroke="black" stroke-width="1.5" fill="none" />
		<path d="M 184 133
						c 0 0, -5 15, 12 28
							" stroke="black" stroke-width="1.5" fill="none" />
		<!-- pupil -->
		  <circle r="3.5" cx="41.9%" cy="37.7%" fill="black"/>
		<path d="M 265 150
						c 0 0, 0 0, 75 0
							" stroke="black" />
		<path d="M 350 150
						c 0 0, 0 0, 75 0
							" stroke="black" />
	</g>
	<!-- bottom -->
	<g>
		<path d="M 184 210
							c 0 0, 0 0, 71 0
							c 0 0, 0 0, -1 7
							c 0 0, 0 0, -70 0
							x
								" stroke="black" fill="#AFD0FE" />
			<path d="M 255 205
							c 0 0, 5 15, -12 28
								" stroke="black" stroke-width="1.5" fill="none" />
			<path d="M 184 205
							c 0 0, -5 15, 12 28
								" stroke="black" stroke-width="1.5" fill="none" />
			<!-- pupil -->
				<circle r="3.5" cx="41.9%" cy="56.1%" fill="black"/>
		</g>
</svg>