 <svg xmlns="http://www.w3.org/2000/svg" height="400" viewBox="0 0 700 400" preserveAspectRatio="xMinYMin meet">
  <!-- background -->
  <rect width="100%" height="100%" fill="#252500" stroke="#000" stroke-width="20"/>
  // Momo 
  <!-- skin -->
  <path d="M 270 190
           c 80 60, 75 60, 150 0,
           c 0 0, 10 -20, -30 -75,
           c 0 0, -10 0, -30 15,
           s -10 20, -50 -10,
           c 0 0, -0 -10, -40 40
           c -13 15, -10 20, 0 30
           " stroke="black" fill="transparent"/>
  //eyes
  <!-- eye right -->
  <!-- black background -->
  <path d="M 358 150
           c 0 0, 20 -1, 40 4
        " stroke="black" stroke-width="3" stroke-linecap="round" />
  <path d="M 396 154
           c 3 20, -30 20, -32 0
           v -3
           z
        " stroke="black" stroke-width="3" stroke-linecap="round" fill="black" />
  <!-- iris -->
  <path d="M 391 154
           c 4 20, -30 15, -32 0
           v -3
           z
        " stroke="black" stroke-linecap="round" fill="#D2EA25" />
        <!-- shadow -->
  <path d="M 359 152
          c 0 0, 0 0, 31 3
          v 3
          c 0 0, 0 0, -30 -3
          " stroke="#809621" fill="#809621" />
  <!-- the pupil -->
  <circle r="5" cx="375px" cy="155px" />
  <!-- eye left -->
  <!-- black background -->
    <path d="M 330 150
            c 0 0, -20 -1, -40 4
            " stroke="black" stroke-width="3" stroke-linecap="round"/>
    <path d="M 327 152
           c -5 20, -30 25, -35 5
           v -3
           z
        " stroke="black" stroke-width="3" stroke-linecap="round" fill="black" />
      <!-- iris -->
  <path d="M 295 155
           c 0 15, 24 20, 33 -3
           z
        " stroke="black" stroke-linecap="round" fill="#D2EA25" />
     <!-- shadow -->
  <path d="M 295 155
          c 0 0, 0 0, 31 -3
          v 3
          c 0 0, 0 0, -30 3
          " stroke="#809621" stroke-linecap="round" fill="#809621" />
  <!-- the pupil -->
  <circle r="5" cx="313px" cy="155px" />
</svg>