<svg xmlns="http://www.w3.org/2000/svg" height="400" viewBox="0 0 700 400" preserveAspectRatio="xMinYMin meet">
    //background
        //blue
        <path d="M 575 0
                c 0 0, 0 0, 50 0
                c 0 0, 0 0, 0 280
                c 0 0, 0 0, -100 0
                "  stroke="#2488AB" fill="#6db8f1" />
        //dark blue
        <path d="M 496 0
                c 0 0, 0 0, 80 0
                c 0 0, 0 0, -50 280
                c 0 0, 0 0, -20 0
                c 0 0, 0 0, -60 -280
                z
                "  stroke="#2488AB" fill="#467FAA" />
        //light grey
        <path d="M 0 315
                c 0 0, 80 -150, 150 -200
                c 0 0, -10 -40, 10 -120
                c 0 0, 0 0, -160 0
                z
                "  stroke="#2488AB" fill="#5796C2" />
        //blue
        <path d="M 0 315
                c 0 0, 0 0, 200 -45
                c 0 0, -20 0, -50 -155
                c 0 0, -50 20, -150 200
                z
                "  stroke="#2488AB" fill="#6db8f1" />
        //dark blue
        <path d="M 160 0
                c 0 0, 10 60, 170 270
                c 0 0, 0 0, -130 0
                c 0 0, -90 -100, -40 -270
                z
                "  stroke="#2488AB" fill="#406CCD" />
        //blue
        <path d="M 150 0
                c 0 0, 0 0, 150 0
                c 0 0, 0 0, -60 150
                c 0 0, -60 -80, -80 -150
                z
                "  stroke="#2488AB" fill="#6db8f1" />
        //light grey
        <path d="M 300 0
                c 0 0, 0 0, 75 0
                c 0 0, 0 0, 50 150
                c 0 0, 0 0, -105 110
                c 0 0, 0 0, -80 -110
                z
                "  stroke="#2488AB" fill="#5796C2" />
        //blue
        <path d="M 470 50
                c 0 0, 0 0, -170 140
                c 0 0, 0 0, -16 20
                c 0 0, 0 0, 36 50
                c 0 0, 0 0, 155 -120
                c 0 0, 0 0, 0 -90
                z
                "  stroke="#2488AB" fill="#6db8f1" />
        //light blue
        <path d="M 475 140
                c 0 0, 0 0, 30 120
                c 0 0, 0 0, -200 0
                z
                "  stroke="#2488AB" fill="#40CAF8" />
        //blue
        <path d="M 375 0
                c 0 0, 0 0, 120 0
                c 0 0, 0 0, -20 50
                c 0 0, 0 0, -66 50
                z
                "  stroke="#2488AB" fill="#6db8f1" />
    //floor
    <g>
    //blue
        <path d="M 50 300
                c 0 0, 300 -100, 700 0
                c 0 0, 0 0, 0 100
                c 0 0, 0 0, -350 0
                z
                " stroke="#2488AB" fill="#63DCFB" />
    //light-blue
        <path d="M 0 315
                c 0 0, 0 0, 50 -15
                c  0 0, 0 0, 350 100
                c 0 0, 0 0, -400 0
                " stroke="#2488AB" stroke-width="1.5" fill="#81FBFC" />
    //light-grey
        <path d="M 50 300
                c 0 0, 0 0, 70 20
                c 0 0, 0 0, -120 15
                z
                " stroke="#2488AB" stroke-width="1.5" fill="#9FD0E7" />
    //shadow
            <path d="M 98 330
                    c 0 0, 0 -55, 232 -70
                    c 0 0, 0 0, 0 -20
                    c 0 0, 0 0, -150 20
                    c 0 0, -170 40, -50 -270 
                    c 0 0, 0 0, -40 0
                    c 0 0, 0 0, -50 250
                    z
                    " fill-opacity="0.25" />
    </g>
    //icicles
            // big left
            <path d="M 78 308
                    c 0 0, 0 0, 25 0
                    c 0 0, 5 0, 5 -5
                    c 0 0, 0 0, -8 -60
                    c 0 0, 0 0, -2 -25
                    c 0 0, -2 -7, -6 0
                    c 0 0, 0 0, -2 25
                    c 0 0, 0 0, -12 58
                    c 0 0, -2 5, 2 8
                    
                    " stroke="#2488AB" stroke-width="1.5" fill="#ADFEFE" />
            //shadow
            <path d="M 95 215
                    c 0 0, 0 0, -3 30
                    c 0 0, 0 0, -3 50
                    c 0 0, 3 5, 18 7
                    c 0 0, 0 0, 0 5
                    c 0 0, 0 0, -30 0
                    z
                    " fill-opacity="0.15" />
    //columns
        <!-- left -->
        <path d="M 0 0
                c 0 0, 0 0, 100 0
                c 0 0, -70 100, 0 340
                c 0 20, -50 -5, -100 10
                " stroke="#2488AB"  stroke-width="1.5" fill="#81FBFC" />
        // dark blue
        <path d="M 70 100
                c 0 0, 0 0, -70 100
                c 0 0, 0 0, 20 70
                c 0 0, 40 10, 64 5
                c 0 0, -20 -70, -13 -175
                " stroke="#2488AB" stroke-width="1.5" fill="#6db8f1" />
        <path d="M 12 240
                c 0 0, 0 0, -12 18
                c 0 0, 0 0, 0 -60
                z
                " stroke="#2488AB" stroke-width="1.5" fill="#6db8f1" />
        //blue
        <path d="M 11 240
                c 0 0, 0 0, 30 105
                c 0 0, -20 -1, -42 4
                c 0 0, 0 0, -2 -90
                z
                "  stroke="#2488AB" stroke-width="1.5" fill="#63DCFB" />
        <path d="M 0 0
                c 0 0, 0 0, 30 0
                c 0 0, 0 0, -30 80
                z
                "  stroke="#2488AB" stroke-width="1.5" fill="#63DCFB" />
        //shadow
            <path d="M 0 300
                    c 0 0, 20 -10, 50 10
                    c 0 0, 20 20, 50 30
                    c 0 0, 0 20, -50 10
                    c 0 0, -30 -10, -50 10
                    " fill-opacity="0.30" />
        <!-- right -->
            <!-- relative -->
            <path d="M 630 0
                    c 0 0, 0 0, 70 0
                    c 0 0, 0 0, 0 250
                    c 0 0, 0 0, -50 0
                    " stroke="#2488AB" stroke-width="1.5" fill="#219FE9" />
            <path d="M 630 0
                    c 0 0, 0 0, -25 280
                    c 0 0 , 0 0, 100 3
                    c 0 0, 30 -40, -70 -200
                    z
                    " stroke="#1A5380"  fill="#2882C0" />
        //shadow
            <path d="M 550 0
                    c 0 0, 30 50, 10 190
                    c 0 0, 0 0, -5 0
                    c 0 0, 5 0, -4 -20
                    c 0 0, -3 0, -5 20
                    c 0 0, 0 0, -18 50
                    c 0 0, 0 0, -10 5
                    c 0 0, 5 0, -3 -20
                    c 0 0, -5 0, -5 20
                    c 0 0, -30 15, -180 -5
                    c 0 0, 0 0, 0 20
                    c 0 0, 0 0, 260 0
                    c 0 0, 0 0, 0 -270
                    " fill-opacity="0.25" />
        //icicles
            //medium
            <path d="M 540 235
                    c 0 0, 0 0, 30 0
                    c 0 0, 0 0, -10 -55
                    c 0 0, -2 -6, -4 0 
                    c 0 0, 0 0, -16 55
                    " stroke="#2488AB" stroke-width="1.5" fill="#ADFEFE" />
            //shadow
            <path d="M 540 235
                    c 0 0, 0 0, 30 0
                    c 0 0, 0 0, -10 -55
                    c 0 0, 0 35, -10 50
                    " fill-opacity="0.15" />
            // big
            <path d="M 525 265
                    c 0 0, 10 5, 27 0
                    c 0 0, 10 0, -5 -70
                    c 0 0, 0 0, -2 -30
                    c 0 0, -2 -6, -4 0
                    c 0 0, 0 0, -4 30 
                    c 0 0, -5 10, -12 70
                    " stroke="#2488AB" stroke-width="1.5" fill="#ADFEFE" />
            //shadow
            <path d="M 525 265
                    c 0 0, 10 0, 20 -20
                    c 0 0 , 3 0,  -2 -80
                    c 0 0, 0 0, 12 80
                    c 0 0, 0 0, 0 20
                    c 0 0, 0 0, -30 2
                    " sttroke="red" fill-opacity="0.15" />
             //small
            <path d="M 495 265
                    c 0 0, 10 5, 20 0
                    c 0 0 , 0 -10, -5 -30
                    c 0 0 , 0 0, -2 -15
                    c 0 0 , -2 -6, -4 0
                    c 0 0 , 0 0, -2 15
                    c 0 0 , -5 15, -7 30
                     " stroke="#2488AB" stroke-width="1.5" fill="#ADFEFE" />
            //shadow
            <path d="M 506 219
                    c 0 0, 0 0, 10 48
                    c 0 0, 0 0, -20 0
                    c 0 0, 15 10, 10 -48
                    " sttroke="red" fill-opacity="0.15" />
            ///
            <path d="M 560 0
                    c 0 0, 70 80, -20 265
                    c 0 0, 0 10, 65 15
                    c 0 0, 40 -140, 30 -280
                    z
                    " stroke="#2488AB" stroke-width="1.5" fill="#63DCFB" />
            <path d ="M 560 0
                    c 0 0, 25 20, 24 130
                    c 0 0, 0 0, 48 10
                    c 0 0, 9 -50, 5 -140
                    " stroke="#2488AB" stroke-width="1.5" fill="#6db8f1"/>
            //shadow
            <path d="M 650 0
                    c 0 0, 20 150, -20 250
                    c 0 0, -20 35, -90 15
                    c 0 0, 0 10, 50 30
                    c 0 0, 30 10, 30 30
                    c 0 0, 0 0, 70 0
                    c 0 0, 0 0, 0 -340
                    " fill-opacity="0.25" />
            <!-- absolute -->
            <path d="M 665 0
                    c 0 0, 10 50, 5 170
                    c 0 0, 0 50, -60 170
                    c 0 0, -10 10, 90 10
                    c 0 0, 0 0, 0 -350
                    " stroke="#2488AB" stroke-width="1.5" fill="#81FBFC" />
            <path d="M 700 150
                    c 0 0, 0 0, -60 210
                    c 0 0, 0 5, 60 5
                    " stroke="#2488AB" stroke-width="1.5"  fill="#ABFDFE" />
            //shadow
            <path d="M 680 220
                    c 0 0, 0 0, -40 100
                    c 0 0, 0 0, 0 0
                    c 0 0, -10 25, -30 20
                    c 0 0, 0 10, 30 13
                    c 0 0, -30 20, 60 15
                    c 0 0, 0 0, 0 -20
                    c 0 0, -30 9, -40 -10
                    c 0 0, -15 0, 20 -120
                    " fill-opacity="0.25" />            
         //icicle
            // medium left
            <path d="M 123 235
                    c 0 0, 0 0, 0 20
                    c 0 0, 0 0, 5 40
                    c 0 0, 0 2, -2 2
                    c 0 0, 0 0, -16 0
                    c 0 0, -2 0, -2 -2
                    c 0 0, 0 0, 5 -35
                    c 0 0, 0 6, 6 -25
                    c 0 0, 2 -5, 4 0
                    " stroke="#2488AB" stroke-width="1.5" fill="#ADFEFE" />
            //shadow
            <path d="M 120 234
                    c 0 0, 0 0, -5 55
                    c 0 0, 0 5, 10 7
                    c 0 0, 0 0, -17 0
                    z
                    " fill-opacity="0.15" />
            //small left
            <path d="M 138 285
                    c 0 0, 0 0, -2 12
                    c 0 0, 0 0, -2 12
                    c 0 0, 5 3, 12 0
                    c 0 0, 0 0, -2 -12
                    c 0 0, 0 0, -2 -12
                    c 0 0, -2 -5, -4 0
                    " stroke="#2488AB" stroke-width="1.5" fill="#ADFEFE" />
            //shadow
            <path d="M 138 285
                    c 0 0, 0 0, 1 20
                    c 0 0, 0 0, 6 5
                    c 0 0, 0 0, -10 0
                    z
                    " sttroke="red" fill-opacity="0.15" />
            //shadow
            <path d="M 134 308
                    c 0 0, -10 10, 12 0
                    c 0 0, 0 0, 0 0
                    " fill-opacity="0.30" />
    <g>
    //drum cymbals
        //left
            //body center
            <path d="M263 152
                    c 0 0, 0 0, 0 50
                    c 0 0, 0 0, 3 0
                    c 0 0, 0 0, 0 -48
                    z
                    "  stroke="black" stroke-opacity="0.6" fill="white" />
            //cymbal
            <path d="M240 140
                    c 0 0, 15 25, 50 30
                    c 0 0, 10 0, 8 -8
                    c 0 0, -15 -25, -50 -30
                    c 0 0, -10 0, -8 8
                    "  stroke="#3F3C2E" stroke-width="2" stroke-opacity="0.6" fill="#F6B409" />
            <path d="M269 135
                    c 0 0, 0 0, -10 4
                    c 0 0, 0 15, 22 15
                    c 0 0, 0 0, 1 -10
                    "  stroke="#3F3C2E" stroke-width="1.5" stroke-opacity="0.6" fill="#F6B409" />
            <path d="M269 135
                    c 0 0, 0 10, 13 10
                    c 0 0, 0 -8, -13 -10
                    "  stroke="#3F3C2E" stroke-width="1.5" stroke-opacity="0.6" fill="#F6B409" />
            //leg
            <path d="M 263 262
                    c 0 0, 0 0, 0 10
                    c 0 0, 0 0, -7 10
                    c 0 0, 0 0, 2 2
                    c 0 0, 0 0, 4 -5 
                    c 0 0, 2.5 4, 5 0
                    c 0 0, 0 0, 4 5
                    c 0 0, 0 0, 2 -2
                    c 0 0, 0 0, -7 -10
                    c 0 0, 0 0, 0 -7
                    z
                    " stroke="black" stroke-opacity="0.6" fill="white" />
            <path d="M 264.5 274.5
                    c 0 0, 0 0, -2 2
                    c 0 0, 0 0, 2 2
                    c 0 0, 0 0, 2 -2
                    c 0 0, 0 0, -2 -2
                    "  stroke="black" stroke-opacity="0.6" fill="#63DCFB" />
            <path d="M 257 278
                    c 0 0 , 0 3, 4 4
                    c 0 0, 0 0, -4 4
                    c 0 0, -3 0, -4 -4
                    z
                    " />
             <path d="M 271.5 278
                    c 0 0 , 0 0, 4 4
                    c 0 0, 0 4, -4 4
                    c 0 0, 0 0, -4 -4
                    c 0 0, 3 0, 4 -4
                    " />
            //body top
            <path d="M286 119
                    c 0 0, 0 0, -12 20
                    c 0 0, 0 3, 3 2
                    c 0 0, 0 0, 12 -20
                    c 0 0, 0 -3, -3 -2
                    " stroke="black" stroke-opacity="0.6" fill="white" />
            //light
            <path d="M 275 144
                    c 0 0, 0 0, 5 2
                    c 0 0, 0 0, -2 7
                    c 0 0, 0 0, -5 -1
                    " fill="white" fill-opacity="0.5" />
            <path d="M 280 155
                    c 0 0, 0 0, 10 12
                    c 0 0, 2 4, -16 -3
                    c 0 0, 0 0, 0 -10
                    " fill="white" fill-opacity="0.5" />
        //right
            //leg
            <path d="M 474 263
                    c 0 0, 0 0, 0 10
                    c 0 0, 0 0, -7 10
                    c 0 0, 0 0, 2 2
                    c 0 0, 0 0, 4 -5 
                    c 0 0, 2.5 4, 5 0
                    c 0 0, 0 0, 4 5
                    c 0 0, 0 0, 2 -2
                    c 0 0, 0 0, -7 -10
                    c 0 0, 0 0, 0 -7
                    z
                    " stroke="black" stroke-opacity="0.6" fill="white" />
            <path d="M 475.5 275.5
                    c 0 0, 0 0, -2 2
                    c 0 0, 0 0, 2 2
                    c 0 0, 0 0, 2 -2
                    c 0 0, 0 0, -2 -2
                    "  stroke="black" stroke-opacity="0.6" fill="#63DCFB" />
            <path d="M 466.5 281
                    c 0 0 , 0 3, 4 4
                    c 0 0, 0 0, -4 4
                    c 0 0, -3 0, -4 -4
                    z
                    " />
             <path d="M 484.5 281
                    c 0 0 , 0 0, 4 4
                    c 0 0, 0 4, -4 4
                    c 0 0, 0 0, -4 -4
                    c 0 0, 3 0, 4 -4
                    " />
        //body center
            <path d="M474 270
                    c 0 0, 0 0, 0 -110
                    c 0 0, 0 0, 3 0
                    c 0 0, 0 0, 0 110
                    "  stroke="black" stroke-opacity="0.6" fill="white" />
        //body top
            <path d="M454 124
                    c 0 0, 0 0, -8 -10
                    c 0 0, -4 -1, -2 3
                    c 0 0, 0 0, 8 10
                    z
                    "  stroke="black" stroke-opacity="0.6" fill="white" />
        //cymbal 
            <path d="M 485 113
                    c 0 0, 0 0, -20 5
                    c 0 0, -13 0, -21 15
                    c 0 0, 0 0, -9 22
                    z
                    " stroke="black" stroke-opacity="0.6" fill="#fdee00" />
            <ellipse rx="9" ry="33" cx="50%" cy="55%"   stroke="black" stroke-opacity="0.6" stroke-width="1.5" fill="#D58510" transform="rotate(49 497 300)"/>
            <path d="M 468 120
                    c 0 0, 0 13, -28 25
                    " stroke="black" stroke-opacity="0.6" fill="none" />
        //body medium
            <circle r="4.5" cx="67.9%" cy="39%"   stroke="black" stroke-opacity="0.6" stroke-width="1.5" fill="white" />
             <circle r="2" cx="67.9%" cy="39%"   stroke="black" stroke-width="1.5" stroke-opacity="0.6" fill="white" />
            <path d="M475 153
                    c 0 0, 0 0, -17 -24
                    c 0 0, 0 0, -3 2
                    c 0 0, 0 0, 17 23
                    "  stroke="black" stroke-opacity="0.6" fill="white" />
        //medium
            //leg
                <path d="M 444 273
                        c 0 0, 0 0, 0 10
                        c 0 0, 0 0, -7 10
                        c 0 0, 0 0, 2 2
                        c 0 0, 0 0, 4 -5 
                        c 0 0, 2.5 4, 5 0
                        c 0 0, 0 0, 4 5
                        c 0 0, 0 0, 2 -2
                        c 0 0, 0 0, -7 -10
                        c 0 0, 0 0, 0 -7
                        z
                        " stroke="black" stroke-opacity="0.6" fill="white" />
                <path d="M 445.5 285.5
                        c 0 0, 0 0, -2 2
                        c 0 0, 0 0, 2 2
                        c 0 0, 0 0, 2 -2
                        c 0 0, 0 0, -2 -2
                        "  stroke="black" stroke-opacity="0.6" fill="#63DCFB" />
                <path d="M 436.5 291
                        c 0 0 , 0 3, 4 4
                        c 0 0, 0 0, -4 4
                        c 0 0, -3 0, -4 -4
                        z
                        " />
                <path d="M 454.5 291
                        c 0 0 , 0 0, 4 4
                        c 0 0, 0 4, -4 4
                        c 0 0, 0 0, -4 -4
                        c 0 0, 3 0, 4 -4
                        " />
            //body center
                <path d="M444 280
                        c 0 0, 0 0, 0 -90
                        c 0 0, 0 0, 3 0
                        c 0 0, 0 0, 0 90
                        
                        "  stroke="black" stroke-opacity="0.6" fill="white" />
            //cymbal
                <path d="M 410 180
                        c 0 0, 0 0, 70 0
                        c 0 0, 3 0, 0 2
                        c 0 0, 0 0, -20 4
                        c 0 0, -10 10, -30 0
                        c 0 0, 0 0, -20 -4
                        c 0 0, 0 0, 0 0
                        z
                        " stroke="black" stroke-width="1.5" stroke-opacity="0.6" fill="#F6B409" />
                <path d="M 411 179
                        c 0 0, -3 0, 0 -2
                        c 0 0, 0 0, 19 -2
                        c 0 0, 15 -14, 30 0
                        c 0 0, 0 0, 20 3
                        c 0 0, 4 4, 1 2
                        " stroke="black" stroke-width="1.5" stroke-opacity="0.6" fill="#F6B409" />
            //body top
            <path d="M 444 168.5
                    c 0 0, 0 0, 0 -4
                    c 0 0, 2 -3, 4 0
                    c 0 0, 0 0, 0 4
                    
                    " stroke="black"  stroke-width="1" fill="white" />
            <path d="M 445 164
                    c 0 0, 0 0, 0 -5
                    c 0 0, 0 0, 2 -2
                    c 0 0, 0 0, 0 5.5
                    c 0 0, 0 0, 0 0
                    " stroke="black"  stroke-width="1" fill="white" />
            //light
                <path d="M 445 170
                        c 0 0, 0 0, 5 9
                        c 0 0, 0 0, 10 0
                        c 0 0, 0 0, -10 -9
                        z
                        " fill="white" fill-opacity="0.5" />
    //iceKing
    <g>
    //beard right part
        <path d="M 372 140
                c 0 0, 0 2, 10 10
                c 0 0, 10 5, 15 19
                c 0 0, 0 0, -30 0
                " stroke="black" fill="white" />
    //clothes
        <path d="M 377 155
                c 0 0, 45 10, 50 120
                c 0 0, -25 10, -90 8
                c 0 0, -10 -50, 10 -110
                z
                " stroke="black" fill="#210DE5" />
    //beard center 
        <path d="M 376 155
                c 0 0, 0 5, 7 15
                c 0 0, 8 8, 5 25
                c 0 0, -5 18, 5 30
                c 0 0, 0 0, -80 0
                c 0 0, 0 0, 0 -20
                c 0 0, -10 -30, 20 -60
                c 0 0, 1 0, 5 -10
                c 0 0, 0 0, 30 0
                c 0 0, 0 0, 5 6
                " stroke="black" fill="white" />
    //face
        <path d="M 364 136
                c 0 0, 0 0, 4 25
                c 0 0 , 0 0, -8 -8
                c 0 0 , 0 0, -5 6
                c 0 0 , 0 0, -4 -4
                c 0 0 , 0 35, -30 50
                c 0 0 , 20 -20, 22 -49
                c 0 0 , 0 0, -4 4
                c 0 0 , 0 0, -3 -4
                c 0 0, 0 0, -6 4
                c 0 0, 8 -12, 12 -25
                " stroke="black" fill="#CBF0FF" />
    //crown
        <path d="M 371.5 138
                c 0 0, 0 0, -4 -35
                c 0 0, 0 0, -6 20
                c 0 0, 0 0, -10 -40
                c 0 0, 0 0, -9 40
                c 0 0, 0 0, -7 -16
                c 0 0, 0 0, 0 30
                c 0 0, 10 7, 36 0
                z
                " stroke="black" fill="#F1E111" />
    //eyes
         <ellipse rx="1.3" ry="2" cx="51%" cy="37%" stroke="black" fill="white" />
         <ellipse rx="1.3" ry="2" cx="49.1%" cy="37%" stroke="black" fill="white" />
    </g>
    //drums
        //medium
            <ellipse rx="33" ry="2%" cx="40%" cy="65.2%" fill="#C4FCFB" stroke="grey" />
            <path d="M 250 210
                    c 0 0, 0 0, 0 50
                    c 0 0, 30 10, 60 0
                    c 0 0, 0 0, 0 -50
                    c 0 0, 0 0, -20 0
                    c 0 0, 0 0, 30 0
                    " stroke="black" stroke-opacity="0.5" stroke-width="2" fill="#B5C525" />
            <ellipse rx="33" ry="2%" cx="40%" cy="52.3%" fill="#C4FCFB" stroke="grey" />
            <ellipse rx="29" ry="1%" cx="40%" cy="52%" fill="white"  stroke="grey" />
            <path d="M 260 215
                    c 0 0, 0 0, 0 47
                    " stroke="black" stroke-width="2" stroke-opacity="0.5" />
            <path d="M 280 217
                    c 0 0, 0 0, 0 47
                    " stroke="black" stroke-width="2" stroke-opacity="0.5" />
            <path d="M 300 216
                    c 0 0, 0 0, 0 47
                    " stroke="black" stroke-width="2" stroke-opacity="0.5" />
        //legs 
            //left
            <path d="M255 266
                    c 0 0, 0 0, 0 6
                    c 0 0, 0 0, -6 5
                    c 0 0, 0 0, 0 12
                    c 0 0, 0 0, 3 0
                    c 0 0, 0 0, 0 -10
                    c 0 0, 0 0, 6 -5
                    c 0 0, 0 0, 0 -7
                    z
                    " stroke="black" stroke-opacity="0.6" fill="white" />
            <path d="M248 285
                    c 0 0, 0 0, 0 8
                    c 0 0, 0 2, 5 0
                    c 0 0, 0 0, 0 -8
                    c 0 0, 0 2, -5 0
                    " stroke="black" />
            //right
            <path d="M274 269
                    c 0 0, 0 0, 0 6
                    c 0 0, 0 0, 2 8
                    c 0 0, 0 0, 0 12
                    c 0 0, 0 0, 3 0
                    c 0 0, 0 0, 0 -10
                    c 0 0, 0 0, -2 -10
                    c 0 0, 0 0, 0 -6
                    z
                    " stroke="black" stroke-opacity="0.6" fill="white" />
            <path d="M275 286
                    c 0 0, 0 0, 0 8
                    c 0 0, 0 2, 5 0
                    c 0 0, 0 0, 0 -8
                    c 0 0, 0 2, -5 0
                    " stroke="black" />
        //small
            <ellipse rx="30" ry="1.7%" cx="60%" cy="57.9%" fill="#C4FCFB" stroke="grey" />
            <path d="M 392 210
                    c 0 0, 0 0, 0 21
                    c 0 0, 27 10, 56 0
                    c 0 0, 0 0, 0 -21
                    " stroke="black" stroke-opacity="0.6" stroke-width="1.2" fill="#B5C525" />
            <ellipse rx="30" ry="1.5%" cx="60%" cy="52.3%" fill="#C4FCFB" stroke="grey" />
            <ellipse rx="25" ry="0.7%" cx="60%" cy="52.1%" fill="white"  stroke="grey" />
            <path d="M 400 214
                    c 0 0, 0 0, 0 18
                    " stroke="black" />
            <path d="M 420 215
                    c 0 0, 0 0, 0 20
                    " stroke="black" />
            <path d="M 440 214
                    c 0 0, 0 0, 0 19
                    " stroke="black" />

        //leg
            <path d="M 420 280
                    c 0 0, 0 0, 0 10
                    c 0 0, 0 0, -7 10
                    c 0 0, 0 0, 2 2
                    c 0 0, 0 0, 4 -5 
                    c 0 0, 2.5 4, 5 0
                    c 0 0, 0 0, 4 5
                    c 0 0, 0 0, 2 -2
                    c 0 0, 0 0, -7 -10
                    c 0 0, 0 0, 0 -7
                    z
                    " stroke="black" stroke-opacity="0.6" fill="white" />
            <path d="M 421.5 292.5
                    c 0 0, 0 0, -2 2
                    c 0 0, 0 0, 2 2
                    c 0 0, 0 0, 2 -2
                    c 0 0, 0 0, -2 -2
                    "  stroke="black" stroke-opacity="0.6" fill="#63DCFB" />
            <path d="M 413 298
                    c 0 0 , 0 3, 4 4
                    c 0 0, 0 0, -4 4
                    c 0 0, -3 0, -4 -4
                    z
                    " />
             <path d="M 430 298
                    c 0 0 , 0 0, 4 4
                    c 0 0, 0 4, -4 4
                    c 0 0, 0 0, -4 -4
                    c 0 0, 3 0, 4 -4
                    " />
        //body center
            <path d="M420 285
                    c 0 0, 0 0, 0 -47
                    c 0 0, 0 0, 3 0
                    c 0 0, 0 0, 0 47
                    "  stroke="black" stroke-opacity="0.6" fill="white" />
        //big
            //grey
            <ellipse rx="58" ry="13.8%" cx="48%" cy="65%" fill="#CBD995"  stroke="black" stroke-opacity="0.5" />
            //green
            <ellipse rx="55" ry="13%" cx="48%" cy="65%" fill="#B5C525"  stroke="black" stroke-opacity="0.5" />
            //grey
            <ellipse rx="58" ry="13.8%" cx="50%" cy="65%" fill="#CBD995" fill-opacity="0.7"  stroke="black" stroke-opacity="0.5" />
            //green
            <ellipse rx="55" ry="13%" cx="50%" cy="65%" fill="white" stroke="black" stroke-opacity="0.5" />
            <g>
            //legs left
                <path d="M 300 300
                        c 0 0, 0 0, -10 10
                        c 0 0, 0 0, 2 3
                        c 0 0, 0 0, 11 -12
                        z
                        " stroke="black" stroke-opacity="0.6" fill="white" />
                <path d="M 290 308
                        c 0 0, 0 0, 6 3
                        c 0 0, 0 0, -2 5
                        c 0 0 , 0 0, -8 0
                        z
                        " />
                //2
                <path d="M 310 305
                        c 0 0, 0 0, -10 10
                        c 0 0, 0 0, 2 3
                        c 0 0, 0 0, 11 -12
                        z
                        " stroke="black" stroke-opacity="0.6" fill="white" />
                <path d="M 301 312
                        c 0 0, 0 0, 6 2
                        c 0 0, 0 0, -2 5
                        c 0 0 , 0 0, -8 0
                        z
                        " />
            //legs right
                <path d="M 385 305
                        c 0 0, 0 0, 8 10
                        c 0 0, 0 0, -4 2
                        c 0 0, 0 0, -8 -10
                        " stroke="black" stroke-opacity="0.6" fill="white" />
                <path d="M 384 312
                        c 0 0, 0 2, 6 -2
                        c 0 0, 0 0, 4 6
                        c 0 0, -3 4, -6 2
                        z
                        " />
                //2
                <path d="M 378 308
                        c 0 0, 0 0, 6 8
                        c 0 0, 0 0, -3 2
                        c 0 0, 0 0, -6 -8
                        z
                        " stroke="black" stroke-opacity="0.6" fill="white" />
                <path d="M 375 312
                        c 0 0, 0 2, 6 -2
                        c 0 0, 0 0, 4 6
                        c 0 0, -3 4, -6 2
                        z
                        " />
            </g>
    </g>
    //words on the big drum
    <g>
        //1
        <path d="M 359 225
                c 0 0, -2 15, 0 30
                c 0 0, 0 0, -8 0
                c 0 0, -3 0, 1 -20
                c 0 0, 0 0, -8 5
                c 0 0, 0 0, 0 -8
                c 0 0, 0 0, 8 -8
                c 0 0, 0 0, 6 1
                z
                " fill="#F79463" />
        //#
        <path d="M 330 230
                c 0 0, 0 0, 0 15
                c 0 0, 2 2, 3 0
                c 0 0, 0 0, 0 -15
                c 0 0, -2 -2, -3 0
                " fill="#F79463" />
        <path d="M 325 230
                c 0 0, 0 0, 0 15
                c 0 0, 2 2, 3 0
                c 0 0, 0 0, 0 -15
                c 0 0, -2 -2, -3 0
                " fill="#F79463" />
        <path d="M 321.5 233
                c 0 0, 0 0, 14 0
                c 0 0, 2 2, 0 3
                c 0 0, 0 0, -14 0
                c 0 0, -2 -2, 0 -3
                " fill="#F79463" />
        <path d="M 321.5 238
                c 0 0, 0 0, 14 0
                c 0 0, 2 2, 0 3
                c 0 0, 0 0, -14 0
                c 0 0, -2 -2, 0 -3
                " fill="#F79463" />
        //B
        <path d="M 305 280
                c 0 0,0 0, 18 -18
                c 0 0, 6 0, 10 7
                c 0 0, 4 10, -8 12
                c 0 0, 4 10, -8 10
                c 0 0, -4 0, -10 -8
                z
                " fill="#F79463" />
        //A
        <path d="M 343 278
                c 0 0, -10 5, -15 20
                c 0 0, 0 4, 5 4
                c 0 0, 0 0, 3 -4
                c 0 0, 0 0, 4 2
                c 0 0, 0 0, 0 4
                c 0 0, 0 4, 5 2
                c 0 0, 6 -5, 3 -25
                c 0 0, 0 -3, -5 -3
                " fill="#F79463" />
        //B
        <path d="M 355 280
                c 0 0,0 0, 5 22
                c 0 0, 15 0, 15 -10
                c 0 0, 0 -5, -5 -5
                c 0 0, 0 0, 2 -5
                c 0 0, 0 -15, -15 -5
                z
                " fill="#F79463" />
        //E
        <path d="M 372 267
                c 0 0, 0 5, 15 20
                c 0 0, 5 0, 13 -10
                c 0 0, 0 -4, -4 -6
                c 0 0, 0 0, -5 5
                c 0 0, -2 2, -2 -2
                c 0 0, 0 0, 5 -5
                c 0 0, 0 -4, -4 -5
                c 0 0, 0 0, -5 5
                c 0 0, -2 2, -2 -2
                c 0 0, 0 0, 5 -5
                c 0 0, 0 -4, -4 -6
                c 0 0, -4 0, -9 6
                z
                " fill="#F79463" />
        //ooo
            <ellipse rx="2" ry="2" cx="46%" cy="68%" fill="white"/>
            <ellipse rx="2" ry="2" cx="45%" cy="70.2%" fill="white"/>
            <ellipse rx="2" ry="2" cx="48.6%" cy="73%" fill="white"/>
            <ellipse rx="2" ry="2" cx="51.8%" cy="70.7%" fill="white"/>
            <ellipse rx="2" ry="2" cx="52.2%" cy="73.5%" fill="white"/>
    </g>
</svg>